<?xml version="1.0" encoding="utf-8"?>
<!-- Generator: Adobe Illustrator 22.0.1, SVG Export Plug-In . SVG Version: 6.00 Build 0)  -->
<svg version="1.1" id="Layer_1" xmlns="http://www.w3.org/2000/svg" xmlns:xlink="http://www.w3.org/1999/xlink" x="0px" y="0px"
	 viewBox="0 0 140 32" style="enable-background:new 0 0 140 32;" xml:space="preserve">
<style type="text/css">
	.st0{fill:#FFFFFF;}
</style>
<g>
	<path class="st0" d="M20.5,4.3h12.7v4.3H29v18.7h-4.4V8.7h-4.1V4.3z"/>
	<path class="st0" d="M34.8,10.3h3.7v2.1c0.4-0.8,0.9-1.5,1.6-1.9s1.4-0.7,2.2-0.7c0.6,0,1.1,0.1,1.7,0.4L42.6,14
		c-0.5-0.3-0.9-0.4-1.2-0.4c-0.7,0-1.2,0.4-1.7,1.2S39,17.3,39,19.6l0,0.8v6.9h-4.2V10.3z"/>
	<path class="st0" d="M46,10.3h4.3v8.2c0,1.6,0.1,2.7,0.3,3.3c0.2,0.6,0.6,1.1,1.1,1.4c0.5,0.3,1.1,0.5,1.8,0.5s1.3-0.2,1.8-0.5
		s0.9-0.8,1.1-1.5c0.2-0.5,0.3-1.5,0.3-3.1v-8.3h4.3v7.2c0,3-0.2,5-0.7,6.1c-0.6,1.3-1.4,2.4-2.5,3.1c-1.1,0.7-2.5,1.1-4.3,1.1
		c-1.9,0-3.4-0.4-4.5-1.3c-1.2-0.8-2-2-2.4-3.5c-0.3-1-0.5-2.9-0.5-5.6V10.3z"/>
	<path class="st0" d="M81.8,13.8l-3.6,2c-0.7-0.7-1.3-1.2-2-1.5c-0.7-0.3-1.4-0.4-2.3-0.4c-1.6,0-2.9,0.5-3.9,1.4
		c-1,1-1.5,2.2-1.5,3.7c0,1.4,0.5,2.6,1.4,3.5c0.9,0.9,2.2,1.4,3.7,1.4c1.9,0,3.4-0.7,4.5-2l3.4,2.3c-1.8,2.4-4.4,3.6-7.7,3.6
		c-3,0-5.3-0.9-7-2.7c-1.7-1.8-2.5-3.8-2.5-6.2c0-1.6,0.4-3.2,1.2-4.5c0.8-1.4,2-2.5,3.4-3.3c1.5-0.8,3.1-1.2,4.9-1.2
		c1.7,0,3.2,0.3,4.5,1S81,12.5,81.8,13.8z"/>
	<path class="st0" d="M85.7,3.8H90v13.6l6.3-7h5.4l-7.3,8.1l8.2,8.9h-5.3L90,19.5v7.8h-4.3V3.8z"/>
	<path class="st0" d="M119.1,18.3l2.6,3l-1.2,1.1l-1.2,1.1l3.7,3.9h-5.3l-1.5-1.6c-2.4,1.4-4.7,2.1-6.7,2.1c-1.8,0-3.2-0.5-4.3-1.5
		s-1.6-2.4-1.6-4c0-1.2,0.3-2.4,0.9-3.5c0.6-1.1,1.7-2.2,3.2-3.4c-1.5-2-2.2-3.8-2.2-5.3c0-1.1,0.5-2.3,1.5-3.4
		c1-1.1,2.4-1.7,4.1-1.7c1.8,0,3.2,0.5,4.1,1.6c1,1.1,1.4,2.2,1.4,3.3c0,0.9-0.2,1.7-0.7,2.5c-0.4,0.8-1.5,2-3.1,3.6
		c1.9,2.2,3.1,3.6,3.6,4.1C116.9,20.2,117.8,19.5,119.1,18.3z M113.4,22.7c-0.8-0.8-1.9-2.1-3.4-3.9c-1.5,1.3-2.3,2.4-2.3,3.4
		c0,0.4,0.2,0.9,0.6,1.2c0.4,0.4,1,0.6,1.6,0.6C110.9,24,112,23.5,113.4,22.7z M110.8,13.2c1.2-1,1.7-1.9,1.7-2.6
		c0-0.4-0.1-0.7-0.4-1c-0.3-0.3-0.6-0.4-1-0.4c-0.4,0-0.7,0.1-1,0.4c-0.3,0.3-0.4,0.6-0.4,1C109.7,11.4,110.1,12.3,110.8,13.2z"/>
</g>
</svg>
